# xmcd
#
# Track frame offsets:
#	150
#	9821
#	19418
#	28434
#	36841
#	45899
#	55839
#	65989
#	76209
#	88487
#	101269
#	111804
#	123417
#	133966
#	152509
#	164647
#	176092
#	189980
#	199577
#	218491
#	239953
#	257733
#	269794
#	284529
#	299838
#	311787
#	326942
#	342272
#
# Disc length: 4734 seconds
#
# Revision: 0
# Processed by: cddbd v1.5.2PL0 Copyright (c) Steve Scherf et al.
# Submitted via: EasyCDDAExtractor 15.2.5.1
#
DISCID=b9127c1c
DTITLE=BEACH BOYS - WARMTH OF THE SUN
DYEAR=1900
DGENRE=
TTITLE0=ALL SUMMER LONG
TTITLE1=CATCH A WAVE
TTITLE2=HAWAII
TTITLE3=LITTLE HONDA
TTITLE4=409
TTITLE5=IT'S OK
TTITLE6=YOU'RE SO GOOD TO ME
TTITLE7=THEN I KISSED HER
TTITLE8=KISS ME, BABY
TTITLE9=PLEASE LET ME WONDER
TTITLE10=LET HIM RUN WILD
TTITLE11=THE LITTLE GIRL I ONCE KNEW
TTITLE12=WENDY
TTITLE13=DISNEY GIRLS (1957)
TTITLE14=FOREVER
TTITLE15=FRIENDS
TTITLE16=BREAK AWAY
TTITLE17=WHY DO FOOLS FALL IN LOVE
TTITLE18=SURF'S UP
TTITLE19=FEEL FLOWS
TTITLE20=ALL THIS AND THAT
TTITLE21=TIL I DIE
TTITLE22=SAIL ON, SAILOR
TTITLE23=COOL, COOL WATER
TTITLE24=DON'T GO NEAR THE WATER
TTITLE25=CALIFORNIA SAGA
TTITLE26=CALIFORNIA DREAMIN'
TTITLE27=THE WARMTH OF THE SUN
EXTD=
EXTT0=
EXTT1=
EXTT2=
EXTT3=
EXTT4=
EXTT5=
EXTT6=
EXTT7=
EXTT8=
EXTT9=
EXTT10=
EXTT11=
EXTT12=
EXTT13=
EXTT14=
EXTT15=
EXTT16=
EXTT17=
EXTT18=
EXTT19=
EXTT20=
EXTT21=
EXTT22=
EXTT23=
EXTT24=
EXTT25=
EXTT26=
EXTT27=
PLAYORDER=
